<svg xmlns="http://www.w3.org/2000/svg" version="1.1" xmlns:xlink="http://www.w3.org/1999/xlink" xmlns:svgjs="http://svgjs.dev/svgjs" width="1500" height="446" viewBox="0 0 1500 446"><g transform="matrix(1,0,0,1,-0.9090909090909918,-0.042373695380433674)"><svg viewBox="0 0 396 118" data-background-color="#ffffff" preserveAspectRatio="xMidYMid meet" height="446" width="1500" xmlns="http://www.w3.org/2000/svg" xmlns:xlink="http://www.w3.org/1999/xlink"><g id="tight-bounds" transform="matrix(1,0,0,1,0.2400000000000091,0.011210977701551883)"><svg viewBox="0 0 395.52 117.9775780445969" height="117.9775780445969" width="395.52"><g><svg viewBox="0 0 395.52000000000004 117.97757804459691" height="117.9775780445969" width="395.52"><g><svg viewBox="0 0 395.52000000000004 117.97757804459691" height="117.97757804459691" width="395.52000000000004"><g id="textblocktransform"><svg viewBox="0 0 395.52000000000004 117.97757804459691" height="117.97757804459691" width="395.52000000000004" id="textblock"><g><svg viewBox="0 0 395.52000000000004 117.97757804459691" height="117.97757804459691" width="395.52000000000004"><g transform="matrix(1,0,0,1,0,0)"><svg width="395.52000000000004" viewBox="1.34 -35.45 142.32999999999998 42.46" height="117.97757804459691" data-palette-color="#2a2c35"><path d="M27.44-1.1L32.86 7.01 24.9 7.01 20.7 0.71Q20.36 0.76 20.06 0.76 19.75 0.76 19.46 0.76L19.46 0.76Q16.97 0.76 14.66 0.11 12.35-0.54 10.34-1.72 8.33-2.91 6.67-4.57 5-6.23 3.82-8.24 2.64-10.25 1.99-12.56 1.34-14.87 1.34-17.36L1.34-17.36Q1.34-19.85 1.99-22.17 2.64-24.49 3.82-26.49 5-28.49 6.67-30.15 8.33-31.81 10.34-32.98 12.35-34.16 14.66-34.8 16.97-35.45 19.46-35.45L19.46-35.45Q21.95-35.45 24.27-34.8 26.59-34.16 28.59-32.98 30.59-31.81 32.25-30.15 33.91-28.49 35.08-26.49 36.25-24.49 36.9-22.17 37.55-19.85 37.55-17.36L37.55-17.36Q37.55-14.77 36.83-12.33 36.11-9.89 34.79-7.78 33.47-5.66 31.6-3.96 29.74-2.25 27.44-1.1L27.44-1.1ZM30.59-17.36L30.59-17.36Q30.59-19.65 29.71-21.69 28.83-23.73 27.33-25.23 25.83-26.73 23.79-27.61 21.75-28.49 19.46-28.49L19.46-28.49Q17.14-28.49 15.11-27.61 13.09-26.73 11.57-25.23 10.06-23.73 9.18-21.69 8.3-19.65 8.3-17.36L8.3-17.36Q8.3-15.06 9.18-13.05 10.06-11.04 11.57-9.52 13.09-8.01 15.11-7.13 17.14-6.25 19.46-6.25L19.46-6.25Q21.75-6.25 23.79-7.13 25.83-8.01 27.33-9.52 28.83-11.04 29.71-13.05 30.59-15.06 30.59-17.36ZM69.75-35.01L69.75-13.99Q69.75-11.08 68.65-8.53 67.55-5.98 65.65-4.09 63.74-2.2 61.19-1.1 58.64 0 55.73 0L55.73 0Q52.83 0 50.28-1.1 47.73-2.2 45.83-4.09 43.94-5.98 42.84-8.53 41.75-11.08 41.75-13.99L41.75-13.99 41.75-35.01 48.73-35.01 48.73-13.99Q48.73-12.55 49.28-11.28 49.83-10.01 50.78-9.06 51.73-8.11 53.01-7.56 54.29-7.01 55.73-7.01L55.73-7.01Q57.18-7.01 58.46-7.56 59.74-8.11 60.69-9.06 61.64-10.01 62.19-11.28 62.74-12.55 62.74-13.99L62.74-13.99 62.74-35.01 69.75-35.01ZM82.83-35.01L82.83 0 75.83 0 75.83-35.01 82.83-35.01ZM114.32-7.01L114.32 0 87.22 0 102.17-28 87.22-28 87.22-35.01 114.32-35.01 99.43-7.01 114.32-7.01ZM143.67-7.01L143.67 0 116.57 0 131.51-28 116.57-28 116.57-35.01 143.67-35.01 128.77-7.01 143.67-7.01Z" opacity="1" transform="matrix(1,0,0,1,0,0)" fill="#2a2c35" class="wordmark-text-0" data-fill-palette-color="primary" id="text-0"></path></svg></g></svg></g></svg></g></svg></g></svg></g><defs></defs></svg><rect width="395.52" height="117.9775780445969" fill="none" stroke="none" visibility="hidden"></rect></g></svg></g></svg>